<?xml version="1.0" encoding="UTF-8"?>
<svg width="108px" height="108px" viewBox="0 0 108 108" version="1.1" xmlns="http://www.w3.org/2000/svg" xmlns:xlink="http://www.w3.org/1999/xlink">
    <!-- Generator: Sketch 49.2 (51160) - http://www.bohemiancoding.com/sketch -->
    <title>ic_launcher</title>
    <desc>Created with Sketch.</desc>
    <defs></defs>
    <g id="ic_launcher" stroke="none" stroke-width="1" fill="none" fill-rule="evenodd">
        <g id="logo" transform="translate(22.000000, 32.000000)" fill="#FFFFFF" fill-rule="nonzero">
            <path d="M45.3190362,27.0375 C44.1515485,28.5933463 43.4381183,30.5398026 43.4381183,32.679366 C43.4381183,37.865939 47.588698,42.0172697 52.7777079,42.0172697 C57.9010896,42.0172697 62.1160411,37.865939 62.1160411,32.679366 C62.1160411,27.5549641 57.9010896,23.3405203 52.7777079,23.3405203 C52.3880218,23.3405203 51.9973936,23.3405203 51.6742777,23.4052033 L50.6371039,20.6809809 C51.2849059,20.5516148 51.9973936,20.4872458 52.7777079,20.4872458 C59.5213792,20.4872458 64.9700748,25.9347488 64.9700748,32.679366 C64.9700748,39.4230413 59.5213792,44.8702304 52.7777079,44.8702304 C46.0318381,44.8702304 40.5197126,39.4230413 40.5197126,32.679366 C40.5197126,29.3061154 41.9468865,26.1944228 44.1515485,23.9892345 L45.3190362,27.0375 Z" id="Fill-1"></path>
            <path d="M5.75764975,27.8801376 C4.7842198,29.4356698 4.33204589,31.0580831 4.33204589,32.6792405 C4.33204589,37.8661274 8.54668357,42.0171441 13.7356932,42.0171441 C16.588785,42.0171441 19.1184469,40.7853409 20.6743647,38.7092045 L24.1121425,39.0991866 C21.9715387,42.6011752 18.080959,44.8701047 13.7356932,44.8701047 C6.99045168,44.8701047 1.47832609,39.4232297 1.47832609,32.6792405 C1.47832609,30.6043601 2.06175604,28.3982297 3.16392995,26.5827093 C4.00610387,26.9067524 4.97953381,27.3620455 5.75764975,27.8801376" id="Fill-3"></path>
            <path d="M0.437258454,21.3239489 C0.51607488,21.2470201 1.05931159,20.7330099 1.14315217,20.6620469 C3.72211352,18.5124357 7.31061594,17.114843 11.1405918,17.114843 C14.4480555,17.114843 17.6908333,18.2172802 20.4151811,20.2271636 L23.1222585,16.198291 L20.441244,9.22131728 C20.1153019,9.29008224 19.7865338,9.33278557 19.4420652,9.33278557 C17.4317753,9.33278557 15.2921135,7.84130831 15.2921135,6.21952303 C15.2921135,5.4405009 15.9402295,5.06998653 16.9777174,5.06998653 C18.7286352,5.06998653 19.2483212,5.11708583 22.294529,5.11708583 L26.4466788,5.11708583 C27.4835387,5.11708583 28.0685387,5.76579994 28.0685387,6.54482207 C28.0685387,7.32258821 27.4185387,7.84130831 26.5769928,7.90630532 L25.7332488,7.97130232 C24.7221377,8.03472937 23.8984903,8.19989086 23.1806643,8.39519589 L30.8026208,28.271721 L31.5041184,28.203898 C32.6565338,28.0808119 33.6246256,28.2195978 34.4950604,28.6843107 C35.7266063,23.1777766 38.9803744,18.9137216 43.358297,15.9781803 L41.0289734,9.89829096 C40.7049154,8.99115878 41.079843,8.14651166 41.8369203,7.2371815 L41.8403744,7.24000747 C42.7714129,5.75010017 42.904553,5.32526466 43.0197946,4.87750746 C43.1808817,4.26396082 42.9708094,3.61367673 42.6436111,3.27079396 C42.4247464,3.04440341 42.0444807,2.73857207 41.3451811,2.75929575 C40.5218478,2.77091358 39.6705676,3.56751943 39.3468237,3.87994468 C38.7794082,4.42190044 37.9337802,4.47967556 37.3610266,3.95436154 C36.792041,3.4259076 36.758756,2.53761513 37.2859783,1.97053977 C37.4690459,1.77115281 39.1380072,0.0369572351 41.3018478,0.00116178052 C42.8599638,-0.0305517362 44.133901,0.623500298 44.9949154,1.66282446 C45.7906159,2.62647578 46.0713406,3.9047503 45.7893599,5.27753739 C45.501099,6.68078198 45.1613406,7.3109704 43.9498911,9.15694825 C43.9351327,9.17861395 43.9206886,9.2015356 43.9075,9.22194526 L43.9253985,9.26684657 L49.720447,9.26684657 C50.5648188,9.26684657 51.0176208,9.65682866 51.6679347,10.4349088 C53.2879104,12.3163681 57.6969203,12.9641403 59.8375242,8.22972039 C60.5503262,6.67356009 62.756244,7.45258223 62.1081282,9.26684657 L59.3847223,17.180154 C59.1894084,17.8279261 58.6716064,18.2172802 57.8922342,18.2172802 L52.5101089,18.2172802 C51.7954228,18.2172802 51.3407366,17.8929231 51.0176208,17.114843 L48.812645,11.537032 L44.7842149,11.537032 L49.7948673,24.7672204 C50.832355,27.4264459 52.322645,29.9537934 53.685447,31.6405756 C54.9160505,33.1973639 52.9073307,34.9497712 51.4782728,33.2629889 C50.1176693,31.7062007 48.3020653,28.9176092 47.1986352,25.9990236 L44.4369203,18.7900075 C40.0778382,21.9842808 37.4558575,26.8179231 37.1475,31.8361947 L37.082814,32.7436409 C36.823128,36.6343556 34.2284662,37.9967808 31.0510024,37.6727378 L14.1246256,35.8550194 C12.2437077,35.6622264 11.1405918,34.4947922 11.1405918,32.8080099 C11.1405918,31.8694782 11.6496014,30.9902916 12.4751329,30.439858 C9.46440822,27.2006833 5.68687198,24.7562306 1.70460145,23.7976032 C1.60694444,23.7737395 1.07407005,23.6242778 0.975471014,23.6076361 C-0.0723792282,23.4201809 -0.314480677,22.0759674 0.437258454,21.3239489 Z M24.3519203,19.3991582 L17.5275483,29.5499955 L27.8682005,28.5533747 L24.3519203,19.3991582 Z M32.2181763,35.4025523 C33.5797222,35.4025523 34.6812681,34.2994872 34.6812681,32.9376899 C34.6812681,31.5762067 33.5797222,30.4743974 32.2181763,30.4743974 C30.9219445,30.4743974 29.7541425,31.5762067 29.7541425,32.9376899 C29.7541425,34.2994872 30.9219445,35.4025523 32.2181763,35.4025523 Z" id="Fill-5"></path>
        </g>
    </g>
</svg>