<svg width="151px" height="146px" viewBox="-2 -2 151 146" version="1.1" xmlns="http://www.w3.org/2000/svg" xmlns:xlink="http://www.w3.org/1999/xlink">
    <!-- Generator: Sketch 3.7.2 (28276) - http://www.bohemiancoding.com/sketch -->
    <desc>Created with Sketch.</desc>
    <defs></defs>
    <g id="Group" stroke="none" stroke-width="1" fill="none" fill-rule="evenodd">
        <path d="M98.1511009,92.2091685 C92.6105573,92.2091685 87.9349659,88.5534073 86.5526593,83.6001878 C99.0588964,83.6119401 100.174442,84.2332472 100.349049,82.1303618 C100.332073,81.5176732 100.096839,81.0977229 94.6532993,69.422165 C95.759953,69.0946665 96.9345094,68.9168144 98.1502925,68.9168144 C104.775664,68.9168144 110.165851,74.1411212 110.165851,80.5633832 C110.165851,86.9856451 104.776472,92.2091685 98.1511009,92.2091685 L98.1511009,92.2091685 Z M91.5831236,70.818343 L96.1132091,80.5469299 L86.1363506,80.5195078 C86.1525179,76.464167 88.3181316,72.8922392 91.5831236,70.818343 L91.5831236,70.818343 Z M82.4671754,80.5093224 L79.5489725,80.500704 L87.1209409,61.2362686 L90.0585445,67.5449246 C85.5268423,70.2009534 82.4873845,75.0162788 82.4671754,80.5093224 L82.4671754,80.5093224 Z M76.1894017,80.0885886 L57.211383,60.0437978 L83.9028341,59.997572 L76.1894017,80.0885886 Z M60.7011008,80.8133163 C60.7011008,87.2347947 55.3109135,92.4591015 48.6855422,92.4591015 C42.060171,92.4591015 36.6691752,87.2347947 36.6691752,80.8133163 C36.6691752,74.3918378 42.0593626,69.167531 48.6847339,69.167531 C49.2821166,69.167531 49.8689907,69.2114064 50.4429308,69.2936728 C46.6153158,80.9927353 47.0744679,79.6608035 47.0510253,80.6472165 C47.0324329,81.4792822 47.7252029,82.1389802 48.5966219,82.1961749 C50.1583859,82.042611 49.8067465,82.2933276 53.7095396,70.2393444 C57.8322084,72.0852452 60.7011008,76.1288336 60.7011008,80.8133163 L60.7011008,80.8133163 Z M98.1511009,65.3597729 C96.3969457,65.3597729 94.7115017,65.644963 93.1351872,66.162066 C91.9129371,63.5358098 90.4845536,60.4629646 88.8120435,56.8557798 L89.8790872,54.0117136 L93.5466457,53.9466839 L93.5466457,50.973342 L79.7413638,50.973342 C78.5336643,52.5747941 80.2304255,52.5677427 86.3441008,53.8816543 L85.2770571,56.7907502 L58.0003486,56.7907502 C59.8377655,50.5706285 58.799823,51.0234853 67.07022,51.0375881 L67.07022,48 C55.6851871,48.107338 57.659218,46.8639405 51.5625183,65.8713914 C50.6296635,65.7029412 49.6685158,65.6104895 48.6847339,65.6104895 C40.0360214,65.6104895 33,72.430764 33,80.8133163 C33,89.1958685 40.0360214,96.0153596 48.6847339,96.0153596 C57.3342547,96.0153596 64.3702761,89.1958685 64.3702761,80.8133163 C64.3702761,74.5407008 60.4294897,69.1432428 54.8218518,66.8241144 C55.1629824,65.7836406 55.5299808,64.6726528 55.9236552,63.4856664 C78.8699447,86.9441202 70.2616506,83.141063 82.6094479,83.6166411 C82.6684586,83.6166411 82.7250443,83.6158576 82.784055,83.6150741 C84.2463899,90.5403362 90.5815576,95.7654265 98.1511009,95.7654265 C106.800622,95.7654265 113.836643,88.9459354 113.836643,80.5633832 C113.836643,72.1808309 106.800622,65.3597729 98.1511009,65.3597729 L98.1511009,65.3597729 Z" id="Page-1" fill="#FFFFFF"></path>
    </g>
</svg>
