<?xml version="1.0" encoding="UTF-8"?>
<svg width="86px" height="76px" viewBox="0 0 86 76" version="1.1" xmlns="http://www.w3.org/2000/svg" xmlns:xlink="http://www.w3.org/1999/xlink">
    <!-- Generator: Sketch 49.2 (51160) - http://www.bohemiancoding.com/sketch -->
    <title>shadow</title>
    <desc>Created with Sketch.</desc>
    <defs></defs>
    <g id="Page-1" stroke="none" stroke-width="1" fill="none" fill-rule="evenodd">
        <g id="ic_launcher" transform="translate(-22.000000, -32.000000)" fill="#000000" fill-rule="nonzero">
            <path d="M76.8070398,102.572642 C76.7266976,102.69104 76.6442892,102.807873 76.5598701,102.923097 L78.1121425,103.099187 C77.9392413,103.38205 77.7549229,103.656868 77.5598701,103.923097 L79.1121425,104.099187 C78.9392413,104.38205 78.7549229,104.656868 78.5598701,104.923097 L80.1121425,105.099187 C77.9715387,108.601175 74.080959,110.870105 69.7356932,110.870105 C66.0925105,110.870105 62.809053,109.28114 60.5595281,106.757053 C60.2072929,106.443102 59.8733494,106.109177 59.5595281,105.757053 C59.2072929,105.443102 58.8733494,105.109177 58.5595281,104.757053 C58.2072929,104.443102 57.8733494,104.109177 57.5595281,103.757053 C57.2072929,103.443102 56.8733494,103.109177 56.5595281,102.757053 C56.2072929,102.443102 55.8733494,102.109177 55.5595281,101.757053 C55.2072929,101.443102 54.8733494,101.109177 54.5595281,100.757053 C54.2072929,100.443102 53.8733494,100.109177 53.5595281,99.7570529 C53.2072929,99.4431022 52.8733494,99.1091771 52.5595281,98.7570529 C52.2072929,98.4431022 51.8733494,98.1091771 51.5595281,97.7570529 C51.2072929,97.4431022 50.8733494,97.1091771 50.5595281,96.7570529 C50.2072929,96.4431022 49.8733494,96.1091771 49.5595281,95.7570529 C49.2072929,95.4431022 48.8733494,95.1091771 48.5595281,94.7570529 C48.2072929,94.4431022 47.8733494,94.1091771 47.5595281,93.7570529 C47.2072929,93.4431022 46.8733494,93.1091771 46.5595281,92.7570529 C46.2072929,92.4431022 45.8733494,92.1091771 45.5595281,91.7570529 C45.2072929,91.4431022 44.8733494,91.1091771 44.5595281,90.7570529 C44.2072929,90.4431022 43.8733494,90.1091771 43.5595281,89.7570529 C43.2072929,89.4431022 42.8733494,89.1091771 42.5595281,88.7570529 C42.2072929,88.4431022 41.8733494,88.1091771 41.5595281,87.7570529 C41.2072929,87.4431022 40.8733494,87.1091771 40.5595281,86.7570529 C40.2072929,86.4431022 39.8733494,86.1091771 39.5595281,85.7570529 C39.2072929,85.4431022 38.8733494,85.1091771 38.5595281,84.7570529 C38.2072929,84.4431022 37.8733494,84.1091771 37.5595281,83.7570529 C37.2072929,83.4431022 36.8733494,83.1091771 36.5595281,82.7570529 C36.2072929,82.4431022 35.8733494,82.1091771 35.5595281,81.7570529 C35.2072929,81.4431022 34.8733494,81.1091771 34.5595281,80.7570529 C34.2072929,80.4431022 33.8733494,80.1091771 33.5595281,79.7570529 C33.2072929,79.4431022 32.8733494,79.1091771 32.5595281,78.7570529 C32.2072929,78.4431022 31.8733494,78.1091771 31.5595281,77.7570529 C31.2072929,77.4431022 30.8733494,77.1091771 30.5595281,76.7570529 C30.2072929,76.4431022 29.8733494,76.1091771 29.5595281,75.7570529 C29.2072929,75.4431022 28.8733494,75.1091771 28.5595281,74.7570529 C28.2072929,74.4431022 27.8733494,74.1091771 27.5595281,73.7570529 C25.0574327,71.5269107 23.4783261,68.2888734 23.4783261,64.6792405 C23.4783261,62.6043601 24.061756,60.3982297 25.16393,58.5827093 C25.4780823,58.7035857 25.8104987,58.8427252 26.1442283,58.9965749 C26.0840901,58.878761 26.0424568,58.7504401 26.0199054,58.6169764 C26.0009746,58.6125973 25.9858273,58.609384 25.975471,58.6076361 C25.4283883,58.5097657 25.1009435,58.0965764 25.0199054,57.6169764 C25.0009746,57.6125973 24.9858273,57.609384 24.975471,57.6076361 C24.4283883,57.5097657 24.1009435,57.0965764 24.0199054,56.6169764 C24.0009746,56.6125973 23.9858273,56.609384 23.975471,56.6076361 C23.4283883,56.5097657 23.1009435,56.0965764 23.0199054,55.6169764 C23.0009746,55.6125973 22.9858273,55.609384 22.975471,55.6076361 C21.9276208,55.4201809 21.6855193,54.0759674 22.4372585,53.3239489 C22.5160749,53.2470201 23.0593116,52.7330099 23.1431522,52.6620469 C25.7221135,50.5124357 29.3106159,49.114843 33.1405918,49.114843 C36.4480555,49.114843 39.6908333,50.2172802 42.4151811,52.2271636 L45.1222585,48.198291 L44.3427264,46.1696652 C44.0838749,45.9468474 43.8616656,45.7005926 43.6891625,45.4387375 C43.280348,45.1519839 42.9344891,44.8111366 42.6891625,44.4387375 C42.280348,44.1519839 41.9344891,43.8111366 41.6891625,43.4387375 C41.280348,43.1519839 40.9344891,42.8111366 40.6891625,42.4387375 C40.280348,42.1519839 39.9344891,41.8111366 39.6891625,41.4387375 C39.280348,41.1519839 38.9344891,40.8111366 38.6891625,40.4387375 C37.8616708,39.8583123 37.2921135,39.056261 37.2921135,38.219523 C37.2921135,37.4405009 37.9402295,37.0699865 38.9777174,37.0699865 C40.7286352,37.0699865 41.2483212,37.1170858 44.294529,37.1170858 L48.4466788,37.1170858 C49.3231795,37.1170858 49.8767802,37.5806585 50.0270529,38.1946434 C50.5683113,38.3511519 50.9132796,38.7297881 51.0270529,39.1946434 C51.5683113,39.3511519 51.9132796,39.7297881 52.0270529,40.1946434 C52.5683113,40.3511519 52.9132796,40.7297881 53.0270529,41.1946434 C53.5683113,41.3511519 53.9132796,41.7297881 54.0270529,42.1946434 C54.5683113,42.3511519 54.9132796,42.7297881 55.0270529,43.1946434 C55.5683113,43.3511519 55.9132796,43.7297881 56.0270529,44.1946434 C56.5683113,44.3511519 56.9132796,44.7297881 57.0270529,45.1946434 C57.5683113,45.3511519 57.9132796,45.7297881 58.0270529,46.1946434 C58.5683113,46.3511519 58.9132796,46.7297881 59.0270529,47.1946434 C59.5683113,47.3511519 59.9132796,47.7297881 60.0270529,48.1946434 C60.5683113,48.3511519 60.9132796,48.7297881 61.0270529,49.1946434 C61.5683113,49.3511519 61.9132796,49.7297881 62.0270529,50.1946434 C62.1583196,50.2326 62.2780411,50.2836214 62.3857196,50.345769 C63.3020042,49.4793347 64.2971266,48.68973 65.358297,47.9781803 L63.0289734,41.898291 C62.7882969,41.2245675 62.9331789,40.5853107 63.3338216,39.9284236 C63.1447921,39.7434088 63.0187128,39.5174354 62.9565816,39.2779069 C62.7427654,39.2242353 62.5387581,39.117372 62.3610266,38.9543615 C62.1568443,38.7647242 62.0216472,38.5287484 61.9565816,38.2779069 C61.7427654,38.2242353 61.5387581,38.117372 61.3610266,37.9543615 C61.1568443,37.7647242 61.0216472,37.5287484 60.9565816,37.2779069 C60.7427654,37.2242353 60.5387581,37.117372 60.3610266,36.9543615 C60.1568443,36.7647242 60.0216472,36.5287484 59.9565816,36.2779069 C59.7427654,36.2242353 59.5387581,36.117372 59.3610266,35.9543615 C58.792041,35.4259076 58.758756,34.5376151 59.2859783,33.9705398 C59.4690459,33.7711528 61.1380072,32.0369572 63.3018478,32.0011618 C64.8599638,31.9694483 66.133901,32.6235003 66.9949154,33.6628245 C67.0508434,33.7305574 67.1042272,33.7998446 67.1550503,33.8706098 C67.4669579,34.0982493 67.7479259,34.3646853 67.9949154,34.6628245 C68.0508434,34.7305574 68.1042272,34.7998446 68.1550503,34.8706098 C68.4669579,35.0982493 68.7479259,35.3646853 68.9949154,35.6628245 C69.0508434,35.7305574 69.1042272,35.7998446 69.1550503,35.8706098 C69.4669579,36.0982493 69.7479259,36.3646853 69.9949154,36.6628245 C70.0508434,36.7305574 70.1042272,36.7998446 70.1550503,36.8706098 C70.4669579,37.0982493 70.7479259,37.3646853 70.9949154,37.6628245 C71.0508434,37.7305574 71.1042272,37.7998446 71.1550503,37.8706098 C71.4669579,38.0982493 71.7479259,38.3646853 71.9949154,38.6628245 C72.0508434,38.7305574 72.1042272,38.7998446 72.1550503,38.8706098 C72.4669579,39.0982493 72.7479259,39.3646853 72.9949154,39.6628245 C73.0508434,39.7305574 73.1042272,39.7998446 73.1550503,39.8706098 C73.4669579,40.0982493 73.7479259,40.3646853 73.9949154,40.6628245 C74.0508434,40.7305574 74.1042272,40.7998446 74.1550503,40.8706098 C74.4669579,41.0982493 74.7479259,41.3646853 74.9949154,41.6628245 C75.0508434,41.7305574 75.1042272,41.7998446 75.1550503,41.8706098 C75.4669579,42.0982493 75.7479259,42.3646853 75.9949154,42.6628245 C76.0508434,42.7305574 76.1042272,42.7998446 76.1550503,42.8706098 C76.4669579,43.0982493 76.7479259,43.3646853 76.9949154,43.6628245 C77.0443552,43.7226998 77.091807,43.7837897 77.1372592,43.8460415 C78.8321212,43.7907235 80.6714113,42.8088375 81.8375242,40.2297204 C82.4243507,38.9485846 84.0231647,39.2501629 84.2083223,40.4091082 C84.6904451,40.4817233 85.1179115,40.8432055 85.2083223,41.4091082 C85.6904451,41.4817233 86.1179115,41.8432055 86.2083223,42.4091082 C86.6904451,42.4817233 87.1179115,42.8432055 87.2083223,43.4091082 C87.6904451,43.4817233 88.1179115,43.8432055 88.2083223,44.4091082 C88.6904451,44.4817233 89.1179115,44.8432055 89.2083223,45.4091082 C89.6904451,45.4817233 90.1179115,45.8432055 90.2083223,46.4091082 C90.6904451,46.4817233 91.1179115,46.8432055 91.2083223,47.4091082 C91.6904451,47.4817233 92.1179115,47.8432055 92.2083223,48.4091082 C92.6904451,48.4817233 93.1179115,48.8432055 93.2083223,49.4091082 C93.6904451,49.4817233 94.1179115,49.8432055 94.2083223,50.4091082 C94.6904451,50.4817233 95.1179115,50.8432055 95.2083223,51.4091082 C95.6904451,51.4817233 96.1179115,51.8432055 96.2083223,52.4091082 C96.6904451,52.4817233 97.1179115,52.8432055 97.2083223,53.4091082 C97.6904451,53.4817233 98.1179115,53.8432055 98.2083223,54.4091082 C98.6904451,54.4817233 99.1179115,54.8432055 99.2083223,55.4091082 C99.6904451,55.4817233 100.117912,55.8432055 100.208322,56.4091082 C100.690445,56.4817233 101.117912,56.8432055 101.208322,57.4091082 C101.690445,57.4817233 102.117912,57.8432055 102.208322,58.4091082 C102.690445,58.4817233 103.117912,58.8432055 103.208322,59.4091082 C103.690445,59.4817233 104.117912,59.8432055 104.208322,60.4091082 C104.690445,60.4817233 105.117912,60.8432055 105.208322,61.4091082 C105.690445,61.4817233 106.117912,61.8432055 106.208322,62.4091082 C106.690445,62.4817233 107.117912,62.8432055 107.208322,63.4091082 C107.690445,63.4817233 108.117912,63.8432055 108.208322,64.4091082 C108.690445,64.4817233 109.117912,64.8432055 109.208322,65.4091082 C109.690445,65.4817233 110.117912,65.8432055 110.208322,66.4091082 C110.690445,66.4817233 111.117912,66.8432055 111.208322,67.4091082 C111.690445,67.4817233 112.117912,67.8432055 112.208322,68.4091082 C112.690445,68.4817233 113.117912,68.8432055 113.208322,69.4091082 C113.690445,69.4817233 114.117912,69.8432055 114.208322,70.4091082 C114.690445,70.4817233 115.117912,70.8432055 115.208322,71.4091082 C115.690445,71.4817233 116.117912,71.8432055 116.208322,72.4091082 C116.690445,72.4817233 117.117912,72.8432055 117.208322,73.4091082 C117.902406,73.5136478 118.48321,74.216883 118.108128,75.2668466 L115.384722,83.180154 C115.189408,83.8279261 114.671606,84.2172802 113.892234,84.2172802 L111.562964,84.2172802 C111.673798,84.3323269 111.782386,84.4495527 111.888659,84.5688878 C112.240974,84.8826394 112.574906,85.2165709 112.888659,85.5688878 C113.240974,85.8826394 113.574906,86.2165709 113.888659,86.5688878 C114.240974,86.8826394 114.574906,87.2165709 114.888659,87.5688878 C115.240974,87.8826394 115.574906,88.2165709 115.888659,88.5688878 C116.240974,88.8826394 116.574906,89.2165709 116.888659,89.5688878 C119.394257,91.8002295 120.970075,95.0522285 120.970075,98.679366 C120.970075,105.423041 115.521379,110.87023 108.777708,110.87023 C105.134153,110.87023 101.850514,109.281145 99.6009154,106.756985 C99.2486792,106.443032 98.9147359,106.109107 98.6009154,105.756985 C98.2486792,105.443032 97.9147359,105.109107 97.6009154,104.756985 C97.2486792,104.443032 96.9147359,104.109107 96.6009154,103.756985 C96.2486792,103.443032 95.9147359,103.109107 95.6009154,102.756985 C95.2486792,102.443032 94.9147359,102.109107 94.6009154,101.756985 C94.2486792,101.443032 93.9147359,101.109107 93.6009154,100.756985 C93.3528724,100.535901 93.1139007,100.304912 92.8846392,100.06464 C92.1768307,102.943648 89.8381188,103.956973 87.0510024,103.672738 L76.8070398,102.572642 Z" id="shadow"></path>
        </g>
    </g>
</svg>